<mxfile host="Electron" modified="2023-11-05T10:11:38.047Z" agent="Mozilla/5.0 (Windows NT 10.0; Win64; x64) AppleWebKit/537.36 (KHTML, like Gecko) draw.io/22.0.3 Chrome/114.0.5735.289 Electron/25.8.4 Safari/537.36" etag="GDIc2EcJyTS2Y4Psx_jM" version="22.0.3" type="device">
  <diagram name="Page-1" id="BYiMNDOSWoy93iB3BNnt">
    <mxGraphModel dx="660" dy="985" grid="1" gridSize="10" guides="1" tooltips="1" connect="1" arrows="1" fold="1" page="1" pageScale="1" pageWidth="583" pageHeight="413" math="0" shadow="0">
      <root>
        <mxCell id="0" />
        <mxCell id="1" parent="0" />
        <mxCell id="yK_VRj1aQTpyIVC20Mtx-4" value="" style="rounded=0;whiteSpace=wrap;html=1;rotation=90;fillColor=#dae8fc;strokeColor=none;dashed=1;dashPattern=1 4;" vertex="1" parent="1">
          <mxGeometry x="-58.75" y="68.75" width="227.5" height="110" as="geometry" />
        </mxCell>
        <mxCell id="yK_VRj1aQTpyIVC20Mtx-6" value="" style="ellipse;whiteSpace=wrap;html=1;aspect=fixed;" vertex="1" parent="1">
          <mxGeometry y="30" width="20" height="20" as="geometry" />
        </mxCell>
        <mxCell id="yK_VRj1aQTpyIVC20Mtx-8" value="max.block.ms" style="endArrow=classic;html=1;rounded=0;exitX=1;exitY=0.5;exitDx=0;exitDy=0;entryX=0;entryY=0.5;entryDx=0;entryDy=0;" edge="1" parent="1" source="yK_VRj1aQTpyIVC20Mtx-6" target="yK_VRj1aQTpyIVC20Mtx-7">
          <mxGeometry width="50" height="50" relative="1" as="geometry">
            <mxPoint x="260" y="410" as="sourcePoint" />
            <mxPoint x="310" y="360" as="targetPoint" />
          </mxGeometry>
        </mxCell>
        <mxCell id="yK_VRj1aQTpyIVC20Mtx-7" value="" style="ellipse;whiteSpace=wrap;html=1;aspect=fixed;" vertex="1" parent="1">
          <mxGeometry x="100" y="30" width="20" height="20" as="geometry" />
        </mxCell>
        <mxCell id="yK_VRj1aQTpyIVC20Mtx-18" value="" style="ellipse;whiteSpace=wrap;html=1;aspect=fixed;fillColor=#0050ef;strokeColor=#001DBC;fontColor=#ffffff;" vertex="1" parent="1">
          <mxGeometry x="100" y="70" width="20" height="20" as="geometry" />
        </mxCell>
        <mxCell id="yK_VRj1aQTpyIVC20Mtx-19" value="" style="endArrow=classic;html=1;exitX=0.5;exitY=1;exitDx=0;exitDy=0;entryX=0.5;entryY=0;entryDx=0;entryDy=0;dashed=1;rounded=1;" edge="1" parent="1" source="yK_VRj1aQTpyIVC20Mtx-7" target="yK_VRj1aQTpyIVC20Mtx-18">
          <mxGeometry width="50" height="50" relative="1" as="geometry">
            <mxPoint x="280" y="430" as="sourcePoint" />
            <mxPoint x="330" y="380" as="targetPoint" />
          </mxGeometry>
        </mxCell>
        <mxCell id="yK_VRj1aQTpyIVC20Mtx-20" value="" style="endArrow=classic;html=1;rounded=0;exitX=1;exitY=0.5;exitDx=0;exitDy=0;entryX=0;entryY=0.5;entryDx=0;entryDy=0;" edge="1" parent="1" source="yK_VRj1aQTpyIVC20Mtx-18" target="yK_VRj1aQTpyIVC20Mtx-17">
          <mxGeometry width="50" height="50" relative="1" as="geometry">
            <mxPoint x="280" y="430" as="sourcePoint" />
            <mxPoint x="330" y="380" as="targetPoint" />
          </mxGeometry>
        </mxCell>
        <mxCell id="yK_VRj1aQTpyIVC20Mtx-21" value="linger.ms&lt;br&gt;" style="edgeLabel;html=1;align=center;verticalAlign=middle;resizable=0;points=[];" vertex="1" connectable="0" parent="yK_VRj1aQTpyIVC20Mtx-20">
          <mxGeometry x="0.0347" y="-1" relative="1" as="geometry">
            <mxPoint as="offset" />
          </mxGeometry>
        </mxCell>
        <mxCell id="yK_VRj1aQTpyIVC20Mtx-31" value="send()" style="text;html=1;strokeColor=none;fillColor=none;align=center;verticalAlign=middle;whiteSpace=wrap;rounded=0;" vertex="1" parent="1">
          <mxGeometry x="20" y="237" width="60" height="30" as="geometry" />
        </mxCell>
        <mxCell id="yK_VRj1aQTpyIVC20Mtx-32" value="Batching" style="text;html=1;strokeColor=none;fillColor=none;align=center;verticalAlign=middle;whiteSpace=wrap;rounded=0;" vertex="1" parent="1">
          <mxGeometry x="130" y="237" width="60" height="30" as="geometry" />
        </mxCell>
        <mxCell id="yK_VRj1aQTpyIVC20Mtx-33" value="" style="rounded=0;whiteSpace=wrap;html=1;rotation=90;fillColor=#dae8fc;strokeColor=none;dashed=1;dashPattern=1 4;" vertex="1" parent="1">
          <mxGeometry x="123.32" y="86.69" width="227.12" height="73.75" as="geometry" />
        </mxCell>
        <mxCell id="yK_VRj1aQTpyIVC20Mtx-17" value="" style="ellipse;whiteSpace=wrap;html=1;aspect=fixed;" vertex="1" parent="1">
          <mxGeometry x="190" y="70" width="17.5" height="17.5" as="geometry" />
        </mxCell>
        <mxCell id="yK_VRj1aQTpyIVC20Mtx-24" value="" style="ellipse;whiteSpace=wrap;html=1;aspect=fixed;" vertex="1" parent="1">
          <mxGeometry x="188.75" y="100" width="20" height="20" as="geometry" />
        </mxCell>
        <mxCell id="yK_VRj1aQTpyIVC20Mtx-34" value="Await Send" style="text;html=1;strokeColor=none;fillColor=none;align=center;verticalAlign=middle;whiteSpace=wrap;rounded=0;" vertex="1" parent="1">
          <mxGeometry x="200" y="237" width="65" height="30" as="geometry" />
        </mxCell>
        <mxCell id="yK_VRj1aQTpyIVC20Mtx-25" value="" style="endArrow=classic;html=1;rounded=0;exitX=0.5;exitY=1;exitDx=0;exitDy=0;" edge="1" parent="1" source="yK_VRj1aQTpyIVC20Mtx-17" target="yK_VRj1aQTpyIVC20Mtx-24">
          <mxGeometry width="50" height="50" relative="1" as="geometry">
            <mxPoint x="280" y="430" as="sourcePoint" />
            <mxPoint x="330" y="380" as="targetPoint" />
          </mxGeometry>
        </mxCell>
        <mxCell id="yK_VRj1aQTpyIVC20Mtx-36" value="" style="ellipse;whiteSpace=wrap;html=1;aspect=fixed;fillColor=#0050ef;fontColor=#ffffff;strokeColor=#001DBC;" vertex="1" parent="1">
          <mxGeometry x="265" y="100" width="20" height="20" as="geometry" />
        </mxCell>
        <mxCell id="yK_VRj1aQTpyIVC20Mtx-39" value="" style="endArrow=classic;html=1;rounded=0;exitX=1;exitY=0.5;exitDx=0;exitDy=0;entryX=0;entryY=0.5;entryDx=0;entryDy=0;" edge="1" parent="1" source="yK_VRj1aQTpyIVC20Mtx-24" target="yK_VRj1aQTpyIVC20Mtx-36">
          <mxGeometry width="50" height="50" relative="1" as="geometry">
            <mxPoint x="280" y="430" as="sourcePoint" />
            <mxPoint x="330" y="380" as="targetPoint" />
          </mxGeometry>
        </mxCell>
        <mxCell id="yK_VRj1aQTpyIVC20Mtx-40" value="Retries" style="text;html=1;strokeColor=none;fillColor=none;align=center;verticalAlign=middle;whiteSpace=wrap;rounded=0;" vertex="1" parent="1">
          <mxGeometry x="300.13" y="237" width="65" height="30" as="geometry" />
        </mxCell>
        <mxCell id="yK_VRj1aQTpyIVC20Mtx-41" value="Inflight" style="text;html=1;strokeColor=none;fillColor=none;align=center;verticalAlign=middle;whiteSpace=wrap;rounded=0;" vertex="1" parent="1">
          <mxGeometry x="430" y="237" width="65" height="30" as="geometry" />
        </mxCell>
        <mxCell id="yK_VRj1aQTpyIVC20Mtx-42" value="" style="rounded=0;whiteSpace=wrap;html=1;rotation=90;fillColor=#dae8fc;strokeColor=none;dashed=1;dashPattern=1 4;" vertex="1" parent="1">
          <mxGeometry x="350.7" y="58.81" width="228.87" height="131.25" as="geometry" />
        </mxCell>
        <mxCell id="yK_VRj1aQTpyIVC20Mtx-22" value="" style="ellipse;whiteSpace=wrap;html=1;aspect=fixed;" vertex="1" parent="1">
          <mxGeometry x="264" y="147" width="20" height="20" as="geometry" />
        </mxCell>
        <mxCell id="yK_VRj1aQTpyIVC20Mtx-43" value="" style="ellipse;whiteSpace=wrap;html=1;aspect=fixed;" vertex="1" parent="1">
          <mxGeometry x="390" y="146.88" width="20" height="20" as="geometry" />
        </mxCell>
        <mxCell id="yK_VRj1aQTpyIVC20Mtx-44" value="" style="ellipse;whiteSpace=wrap;html=1;aspect=fixed;fillColor=#0050ef;fontColor=#ffffff;strokeColor=#001DBC;" vertex="1" parent="1">
          <mxGeometry x="520" y="146.88" width="20" height="20" as="geometry" />
        </mxCell>
        <mxCell id="yK_VRj1aQTpyIVC20Mtx-45" value="" style="endArrow=classic;html=1;rounded=1;exitX=1;exitY=0.5;exitDx=0;exitDy=0;entryX=0.5;entryY=0;entryDx=0;entryDy=0;dashed=1;" edge="1" parent="1" source="yK_VRj1aQTpyIVC20Mtx-36" target="yK_VRj1aQTpyIVC20Mtx-43">
          <mxGeometry width="50" height="50" relative="1" as="geometry">
            <mxPoint x="280" y="430" as="sourcePoint" />
            <mxPoint x="330" y="380" as="targetPoint" />
            <Array as="points">
              <mxPoint x="400" y="110" />
            </Array>
          </mxGeometry>
        </mxCell>
        <mxCell id="yK_VRj1aQTpyIVC20Mtx-49" value="" style="endArrow=none;html=1;rounded=0;exitX=0;exitY=0.5;exitDx=0;exitDy=0;entryX=1;entryY=0.5;entryDx=0;entryDy=0;endFill=0;" edge="1" parent="1" source="yK_VRj1aQTpyIVC20Mtx-44" target="yK_VRj1aQTpyIVC20Mtx-43">
          <mxGeometry width="50" height="50" relative="1" as="geometry">
            <mxPoint x="280" y="430" as="sourcePoint" />
            <mxPoint x="330" y="380" as="targetPoint" />
          </mxGeometry>
        </mxCell>
        <mxCell id="yK_VRj1aQTpyIVC20Mtx-50" value="request.timeout.ms" style="edgeLabel;html=1;align=center;verticalAlign=middle;resizable=0;points=[];" vertex="1" connectable="0" parent="yK_VRj1aQTpyIVC20Mtx-49">
          <mxGeometry x="0.0152" y="1" relative="1" as="geometry">
            <mxPoint as="offset" />
          </mxGeometry>
        </mxCell>
        <mxCell id="yK_VRj1aQTpyIVC20Mtx-51" value="" style="endArrow=none;html=1;rounded=0;exitX=1;exitY=0.5;exitDx=0;exitDy=0;entryX=0;entryY=0.5;entryDx=0;entryDy=0;endFill=0;" edge="1" parent="1" source="yK_VRj1aQTpyIVC20Mtx-22" target="yK_VRj1aQTpyIVC20Mtx-43">
          <mxGeometry width="50" height="50" relative="1" as="geometry">
            <mxPoint x="280" y="430" as="sourcePoint" />
            <mxPoint x="330" y="380" as="targetPoint" />
          </mxGeometry>
        </mxCell>
        <mxCell id="yK_VRj1aQTpyIVC20Mtx-52" value="retry.backoff.ms" style="edgeLabel;html=1;align=center;verticalAlign=middle;resizable=0;points=[];" vertex="1" connectable="0" parent="yK_VRj1aQTpyIVC20Mtx-51">
          <mxGeometry x="-0.1636" y="-1" relative="1" as="geometry">
            <mxPoint as="offset" />
          </mxGeometry>
        </mxCell>
        <mxCell id="yK_VRj1aQTpyIVC20Mtx-53" value="" style="endArrow=classic;html=1;rounded=1;exitX=0.693;exitY=0.01;exitDx=0;exitDy=0;exitPerimeter=0;entryX=0.5;entryY=1;entryDx=0;entryDy=0;dashed=1;" edge="1" parent="1" source="yK_VRj1aQTpyIVC20Mtx-42" target="yK_VRj1aQTpyIVC20Mtx-22">
          <mxGeometry width="50" height="50" relative="1" as="geometry">
            <mxPoint x="280" y="430" as="sourcePoint" />
            <mxPoint x="330" y="380" as="targetPoint" />
            <Array as="points">
              <mxPoint x="520" y="180" />
              <mxPoint x="480" y="180" />
              <mxPoint x="400" y="180" />
              <mxPoint x="280" y="180" />
            </Array>
          </mxGeometry>
        </mxCell>
        <mxCell id="yK_VRj1aQTpyIVC20Mtx-54" value="delivery.timeout.ms &amp;gt;= linger.ms + retry.backoff.ms + request.timeout.ms" style="rounded=1;whiteSpace=wrap;html=1;fillColor=#0050ef;fontColor=#ffffff;strokeColor=#001DBC;" vertex="1" parent="1">
          <mxGeometry x="100" y="207" width="440" height="20" as="geometry" />
        </mxCell>
      </root>
    </mxGraphModel>
  </diagram>
</mxfile>
